<mxfile host="app.diagrams.net" modified="2023-02-17T03:00:43.989Z" agent="5.0 (Windows NT 10.0; Win64; x64) AppleWebKit/537.36 (KHTML, like Gecko) Chrome/110.0.0.0 Safari/537.36" etag="ZmuS3BsxmNCNaU0SE9sn" version="20.8.20" type="github">
  <diagram name="PÃ¡gina-1" id="vrQVgnBcplRZsaQNlVIw">
    <mxGraphModel dx="1877" dy="1742" grid="1" gridSize="10" guides="1" tooltips="1" connect="1" arrows="1" fold="1" page="1" pageScale="1" pageWidth="827" pageHeight="1169" math="0" shadow="0">
      <root>
        <mxCell id="0" />
        <mxCell id="1" parent="0" />
        <mxCell id="DquQTZMPiSn_yVQ3O4vY-1" value="" style="shape=datastore;whiteSpace=wrap;html=1;" vertex="1" parent="1">
          <mxGeometry x="740" y="200" width="60" height="60" as="geometry" />
        </mxCell>
        <mxCell id="DquQTZMPiSn_yVQ3O4vY-2" value="" style="html=1;whiteSpace=wrap;shape=isoCube2;backgroundOutline=1;isoAngle=15;" vertex="1" parent="1">
          <mxGeometry x="590" y="180" width="90" height="100" as="geometry" />
        </mxCell>
        <mxCell id="DquQTZMPiSn_yVQ3O4vY-3" value="Cloud" style="ellipse;shape=cloud;whiteSpace=wrap;html=1;align=center;" vertex="1" parent="1">
          <mxGeometry x="-720" y="-490" width="100" height="60" as="geometry" />
        </mxCell>
        <mxCell id="DquQTZMPiSn_yVQ3O4vY-4" value="" style="html=1;whiteSpace=wrap;shape=isoCube2;backgroundOutline=1;isoAngle=15;" vertex="1" parent="1">
          <mxGeometry x="-210" y="-430" width="90" height="100" as="geometry" />
        </mxCell>
      </root>
    </mxGraphModel>
  </diagram>
</mxfile>
